<?xml version="1.0" encoding="UTF-8" standalone="no"?>
<!-- Created with Inkscape (http://www.inkscape.org/) -->

<svg
   width="210mm"
   height="297mm"
   viewBox="0 0 210 297"
   version="1.1"
   id="svg5"
   xml:space="preserve"
   inkscape:export-filename="coconut.svg"
   inkscape:export-xdpi="61.036736"
   inkscape:export-ydpi="61.036736"
   inkscape:version="1.2 (dc2aedaf03, 2022-05-15)"
   sodipodi:docname="coconut.svg"
   xmlns:inkscape="http://www.inkscape.org/namespaces/inkscape"
   xmlns:sodipodi="http://sodipodi.sourceforge.net/DTD/sodipodi-0.dtd"
   xmlns="http://www.w3.org/2000/svg"
   xmlns:svg="http://www.w3.org/2000/svg"><sodipodi:namedview
     id="namedview7"
     pagecolor="#ffffff"
     bordercolor="#999999"
     borderopacity="1"
     inkscape:showpageshadow="0"
     inkscape:pageopacity="0"
     inkscape:pagecheckerboard="0"
     inkscape:deskcolor="#d1d1d1"
     inkscape:document-units="mm"
     showgrid="false"
     inkscape:zoom="0.74208053"
     inkscape:cx="87.591572"
     inkscape:cy="332.17419"
     inkscape:window-width="1920"
     inkscape:window-height="1012"
     inkscape:window-x="0"
     inkscape:window-y="0"
     inkscape:window-maximized="1"
     inkscape:current-layer="layer1" /><defs
     id="defs2" /><g
     inkscape:label="Layer 1"
     inkscape:groupmode="layer"
     id="layer1"><path
       style="fill:#000000;stroke-width:0.592568"
       d="M 97.933152,189.01642 C 83.549019,187.56096 68.691519,182.44266 57.04594,174.93108 50.997044,171.02945 42.782647,163.8421 38.240775,158.47713 22.468466,139.8465 15.238106,117.97552 16.83134,93.716174 c 1.032557,-15.7222 6.30291,-30.80483 15.529657,-44.442615 4.682641,-6.92127 15.689686,-17.92832 22.610954,-22.61096 9.985203,-6.75557 20.482437,-11.2755 32.365784,-13.93617 5.343686,-1.19645 7.745797,-1.37724 18.298805,-1.37724 9.53384,0 13.22837,0.23285 17.17029,1.08217 17.65815,3.80461 32.02249,11.30891 44.32085,23.15436 16.14426,15.5497 25.19892,34.172255 27.39984,56.352755 2.04051,20.563976 -4.03494,42.890306 -16.41293,60.314906 -4.54347,6.39588 -14.0247,15.8228 -20.4975,20.38008 -6.15413,4.33291 -16.10622,9.50856 -22.44766,11.67404 -11.89463,4.06181 -26.00124,5.84574 -37.236278,4.70892 z m 21.628738,-10.03055 c 16.34521,-2.69516 32.56245,-11.45442 44.30795,-23.93161 11.23783,-11.9379 18.45632,-26.45026 20.93236,-42.08335 1.43961,-9.08935 0.90116,-23.600486 -1.18273,-31.874426 -9.08325,-36.064445 -41.07272,-61.148075 -77.98293,-61.148075 -34.626521,0 -65.431622,22.39932 -76.125575,55.353195 -3.029412,9.33527 -3.57486,13.13948 -3.57486,24.932816 0,7.97632 0.264302,11.89039 1.048027,15.52034 3.451196,15.98482 10.761437,29.5149 22.04116,40.79462 18.889311,18.8893 43.866538,26.83414 70.536598,22.43649 z"
       id="path179" /><path
       style="fill:#7e3b1b;fill-opacity:1;stroke-width:0.34521"
       d="m 76.366338,155.19141 c 0,-0.18315 0.148908,-0.6942 0.330892,-1.13568 0.182014,-0.44146 4.342231,-11.41687 9.245,-24.38976 10.028452,-26.53573 14.92499,-39.82357 15.20661,-41.266299 0.64999,-3.330098 -5.97704,-17.404956 -10.596014,-22.504364 -1.985701,-2.192251 -2.21354,-2.335108 -5.037962,-3.159007 -2.848505,-0.830937 -3.046435,-0.843904 -5.33904,-0.34976 -4.571093,0.98526 -8.272111,2.991375 -12.817187,6.947487 l -1.544007,1.343957 -0.948019,-0.760332 c -0.52141,-0.418188 -2.376529,-2.037399 -4.122464,-3.598257 l -3.174415,-2.837915 1.298731,-1.170523 c 5.204307,-4.690453 12.230372,-8.730029 18.009442,-10.354346 2.965171,-0.833427 3.254283,-0.851333 8.52214,-0.527663 3.787038,0.232689 5.489346,0.222791 5.57238,-0.03245 0.06571,-0.202091 0.709372,-1.171787 1.430279,-2.154891 3.443613,-4.695961 12.693566,-9.559406 21.565616,-11.338791 1.64287,-0.329492 3.04366,-0.534925 3.11291,-0.456509 0.297,0.336421 1.23868,10.580517 0.99246,10.796633 -0.14942,0.131154 -1.95979,0.591554 -4.02307,1.023111 -6.70198,1.401782 -10.86404,3.551743 -12.46457,6.438682 -1.21336,2.188625 -0.84537,4.404967 1.33675,8.050982 4.16995,6.967374 8.63924,18.489282 32.7161,84.343065 l 2.71486,7.42557 h -6.22972 -6.22968 l -2.45837,-7.25085 c -4.14361,-12.22136 -13.78171,-40.96197 -14.85302,-44.29131 -1.18302,-3.67647 -1.75979,-3.999582 -2.49504,-1.39776 -1.51691,5.36787 -15.232399,46.09161 -17.623878,52.3284 -0.210785,0.54976 -0.833631,0.61152 -6.166101,0.61152 -3.531784,0 -5.931613,-0.13472 -5.931613,-0.333 z"
       id="path2034" /><path
       style="fill:#076007;fill-opacity:1;stroke-width:0.370151"
       d="m 61.350722,68.379145 c -1.719269,-1.686407 -3.125946,-3.376811 -3.125946,-3.756449 0,-0.991262 4.12898,-4.806674 7.518464,-6.947489 3.73215,-2.357241 8.90695,-4.577917 12.43955,-5.338244 3.222744,-0.693646 7.914329,-0.777155 10.921219,-0.19439 l 2.09147,0.40534 2.764888,-2.997134 c 3.65106,-3.957747 6.050983,-5.875611 9.866293,-7.884509 3.46891,-1.82651 10.4604,-4.194422 13.48473,-4.567076 1.67562,-0.206465 1.98385,-0.140633 2.30719,0.492772 0.34582,0.677477 1.33055,9.941209 1.0788,10.148673 -0.062,0.05103 -1.56207,0.467898 -3.33354,0.926314 -6.6308,1.715873 -11.65,4.344075 -14.38135,7.530469 -1.22297,1.426718 -1.70036,2.582404 -2.27647,5.511015 -0.11519,0.58556 -0.875358,1.822066 -1.689265,2.747774 -1.34286,1.52734 -1.634464,1.682686 -3.150929,1.678604 -2.016454,-0.0053 -4.374221,-0.640985 -7.997485,-2.155782 -2.579431,-1.078396 -2.860207,-1.118056 -5.772457,-0.815284 -1.68364,0.175033 -3.635776,0.51332 -4.33809,0.751749 -2.439033,0.828029 -6.006938,2.916301 -8.912832,5.216608 -1.60723,1.272286 -3.247606,2.313243 -3.645267,2.313243 -0.405863,0 -2.094268,-1.345038 -3.848973,-3.066204 z"
       id="path1545" /></g></svg>
